<svg xmlns="http://www.w3.org/2000/svg" viewBox="0 0 333334 330837" shape-rendering="geometricPrecision" text-rendering="geometricPrecision" image-rendering="optimizeQuality" fill-rule="evenodd" clip-rule="evenodd"><path d="M292237 3551c-2603-2417-5578-3719-8926-3533-3347 0-6322 1302-8739 3905l-19711 20455 55229 53369 19897-20828c2417-2418 3347-5579 3347-8926s-1302-6509-3719-8740L292237 3549zM22645 13811h136164v35364H39551c-1143 0-2189 476-2950 1237s-1237 1807-1237 2950v237923c0 1142 476 2189 1237 2950s1807 1237 2950 1237h237924c1142 0 2189-476 2950-1237s1237-1807 1237-2950V176596h35365v131596c0 6280-2569 11893-6660 15985-4092 4091-9800 6660-15985 6660H22646c-6280 0-11893-2569-15985-6660C2570 320085 1 314376 1 308192V36456c0-6280 2569-11893 6660-15985 4092-4091 9800-6660 15985-6660zm166201 189828c-7253 2417-14690 4649-21943 7067-7252 2417-14505 4834-21943 7252-17294 5578-26778 8740-28823 9298-2046 558-744-7439 3533-24174l13761-52625 1129-1174 54321 54321-35 37zm-34204-75230l85280-88535 55229 53183-86207 89654-54302-54302z"/></svg>