<?xml version="1.0" encoding="iso-8859-1"?>
<!-- Generator: Adobe Illustrator 19.0.0, SVG Export Plug-In . SVG Version: 6.00 Build 0)  -->
<svg version="1.1" id="Layer_1" xmlns="http://www.w3.org/2000/svg" xmlns:xlink="http://www.w3.org/1999/xlink" x="0px" y="0px"
	 viewBox="0 0 512 512" style="enable-background:new 0 0 512 512;" xml:space="preserve">
<g>
	<g>
		<path d="M490.667,0H21.333C9.557,0,0,9.557,0,21.333v469.333C0,502.443,9.557,512,21.333,512h469.333
			c11.797,0,21.333-9.557,21.333-21.333V21.333C512,9.557,502.464,0,490.667,0z M170.667,405.397
			c0,11.733-9.515,21.269-21.269,21.269h-42.795c-11.755,0-21.269-9.536-21.269-21.269v-42.795c0-11.755,9.515-21.269,21.269-21.269
			h42.795c11.755,0,21.269,9.515,21.269,21.269V405.397z M170.667,277.397c0,11.733-9.515,21.269-21.269,21.269h-42.795
			c-11.755,0-21.269-9.536-21.269-21.269v-42.795c0-11.755,9.515-21.269,21.269-21.269h42.795c11.755,0,21.269,9.515,21.269,21.269
			V277.397z M170.667,149.397c0,11.733-9.515,21.269-21.269,21.269h-42.795c-11.755,0-21.269-9.536-21.269-21.269v-42.795
			c0-11.755,9.515-21.269,21.269-21.269h42.795c11.755,0,21.269,9.515,21.269,21.269V149.397z M405.333,405.333H234.667
			c-11.776,0-21.333-9.557-21.333-21.333s9.557-21.333,21.333-21.333h170.667c11.776,0,21.333,9.557,21.333,21.333
			S417.109,405.333,405.333,405.333z M405.333,277.333H234.667c-11.776,0-21.333-9.557-21.333-21.333s9.557-21.333,21.333-21.333
			h170.667c11.776,0,21.333,9.557,21.333,21.333S417.109,277.333,405.333,277.333z M405.333,149.333H234.667
			c-11.776,0-21.333-9.557-21.333-21.333s9.557-21.333,21.333-21.333h170.667c11.776,0,21.333,9.557,21.333,21.333
			S417.109,149.333,405.333,149.333z"/>
	</g>
</g>
<g>
</g>
<g>
</g>
<g>
</g>
<g>
</g>
<g>
</g>
<g>
</g>
<g>
</g>
<g>
</g>
<g>
</g>
<g>
</g>
<g>
</g>
<g>
</g>
<g>
</g>
<g>
</g>
<g>
</g>
</svg>
