<?xml version="1.0" encoding="iso-8859-1"?>
<!-- Generator: Adobe Illustrator 16.0.0, SVG Export Plug-In . SVG Version: 6.00 Build 0)  -->
<!DOCTYPE svg PUBLIC "-//W3C//DTD SVG 1.1//EN" "http://www.w3.org/Graphics/SVG/1.1/DTD/svg11.dtd">
<svg version="1.1" id="Capa_1" xmlns="http://www.w3.org/2000/svg" xmlns:xlink="http://www.w3.org/1999/xlink" x="0px" y="0px"
	 width="125.192px" height="125.192px" viewBox="0 0 125.192 125.192" style="enable-background:new 0 0 125.192 125.192;"
	 xml:space="preserve">
<g>
	<g>
		<path d="M56.022,102.117l-0.893-7.79l-1.616,0.759l0.49,3.277c0.132,0.877,0.296,1.773,0.506,2.662l-0.029,0.015
			c-0.553-0.764-1.125-1.437-1.728-2.126l-2.154-2.46l-1.667,0.782l5.314,5.716L56.022,102.117z"/>
		<polygon points="67.11,96.913 68.637,96.197 66.078,90.746 67.915,89.885 67.315,88.607 62.144,91.034 62.744,92.311 
			64.551,91.465 		"/>
		<path d="M55.734,79.678c-6.828,3.205-10.366,10.61-8.988,17.699l28.346-13.308C70.52,78.48,62.562,76.473,55.734,79.678z"/>
		<path d="M95.826,47.359H74.389V31.322c1.692-0.089,3.242-1.178,3.828-2.88c0.993-2.881,7.17-7.98,10.108-12.103v0.017h7.755V0
			h-7.755v1.506c-0.51-0.089-1.047-0.18-1.472-0.241C75.09-0.476,64.649,2.869,56.658,9.035
			c-8.765,6.763-11.968,19.806-12.017,20.247c-0.098,0.891,0.088,1.744,0.48,2.478c-0.869,2.102,0.044,4.53,2.123,5.509
			c0.589,0.277,1.21,0.409,1.821,0.409c0.602,0,1.194-0.128,1.739-0.369v10.05H29.366L18.953,68.237v56.955h87.286V68.237
			L95.826,47.359z M89.936,1.612h4.533v13.133h-4.533V1.612z M68.23,18.839c5.281,0.811,3.227,3.535,2.121,6.183H58.242
			C60.839,21.347,64.262,18.229,68.23,18.839z M53.255,34.463c0.53-1.308,1.708-4.107,3.409-6.992h13.243
			c0.133,1.32,0.87,2.53,2.03,3.233v20.35H53.255V34.463z M47.283,53.027h3.522v0.478h23.583v-0.478h3.521v3.471H47.283V53.027z
			 M70.695,111.547c-9.513,4.465-20.885,0.359-25.351-9.152c-4.466-9.514-0.36-20.885,9.153-25.353
			c9.513-4.467,20.886-0.36,25.351,9.152C84.314,95.707,80.208,107.079,70.695,111.547z"/>
		<path d="M51.028,105.555c4.669,4.789,12.043,6.354,18.43,3.355c6.388-2.999,9.894-9.672,9.19-16.324L51.028,105.555z"/>
		<path d="M58.685,92.523c-1.986,0.934-2.566,3.045-1.62,5.062c0.9,1.916,2.775,2.875,4.772,1.938
			c1.965-0.924,2.676-2.889,1.639-5.096C62.606,92.571,60.751,91.555,58.685,92.523z M61.349,98.277
			c-1.017,0.479-2.072-0.159-2.69-1.477c-0.614-1.309-0.474-2.567,0.554-3.051c1.048-0.492,2.114,0.273,2.681,1.48
			C62.508,96.539,62.378,97.793,61.349,98.277z"/>
		<polygon points="75.577,92.938 74.992,91.689 72.227,92.989 71.477,91.393 73.952,90.23 73.371,88.991 70.896,90.154 
			70.24,88.756 72.865,87.523 72.28,86.276 68.127,88.227 71.285,94.952 		"/>
	</g>
</g>
<g>
</g>
<g>
</g>
<g>
</g>
<g>
</g>
<g>
</g>
<g>
</g>
<g>
</g>
<g>
</g>
<g>
</g>
<g>
</g>
<g>
</g>
<g>
</g>
<g>
</g>
<g>
</g>
<g>
</g>
</svg>
